<?xml version="1.0" ?>

<!-- Uploaded to: SVG Repo, www.svgrepo.com, Generator: SVG Repo Mixer Tools -->
<svg fill="#ffffff" width="800px" height="800px" viewBox="0 0 100 100" version="1.1" xml:space="preserve" xmlns="http://www.w3.org/2000/svg" xmlns:xlink="http://www.w3.org/1999/xlink">

<g id="hairdryer"/>

<g id="scissor"/>

<g id="razor"/>

<g id="razor_blade_1_"/>

<g id="comb"/>

<g id="shaving_machine"/>

<g id="barbershop"/>

<g id="barber_pole"/>

<g id="hairstylist"/>

<g id="kids"/>

<g id="mature">

<g>

<path d="M89.6,76.2c-0.4-4.8-3.8-8.8-8.5-9.9l-13.7-3.2C71,57.9,73,51.6,73,44.9v-4.3c0.8-0.3,1.6-0.8,2.3-1.4    c1.1-1.1,1.7-2.6,1.7-4.2c0-2.6-1.6-4.8-4-5.6V21c0-9.4-7.6-17-17-17H44c-9.4,0-17,7.6-17,17v8.3c-0.8,0.3-1.6,0.8-2.3,1.4    C23.6,31.9,23,33.4,23,35c0,2.6,1.6,4.8,4,5.6v4.3c0,6.7,2,13,5.6,18.3l-13.7,3.2c-4.7,1.1-8.1,5.1-8.5,9.9L9,94.9    c0,0.3,0.1,0.6,0.3,0.8C9.5,95.9,9.7,96,10,96h40h40c0.3,0,0.5-0.1,0.7-0.3c0.2-0.2,0.3-0.5,0.3-0.8L89.6,76.2z M75,35    c0,1.1-0.4,2.1-1.2,2.8c-0.2,0.2-0.5,0.5-0.8,0.6v-6.9C74.2,32.2,75,33.5,75,35z M44,6h12c8.3,0,15,6.7,15,15v8    c-7.8-0.4-9-5-9-5.2c-0.1-0.4-0.4-0.7-0.7-0.8c-0.4-0.1-0.8,0-1,0.3C56.6,27.8,37.3,28.9,29,29v-8C29,12.7,35.7,6,44,6z M33,30.9    c7.9-0.3,22.3-1.3,27.6-5.2c0.8,1.5,2.6,3.6,6.4,4.7v8.8c0,3.8-3.1,6.8-6.8,6.8H39.8c-3.8,0-6.8-3.1-6.8-6.8V30.9z M25,35    c0-1.1,0.4-2.1,1.2-2.8c0.2-0.2,0.5-0.5,0.8-0.6v6.9C25.8,37.8,25,36.5,25,35z M29,31c0.5,0,1.2,0,2,0v8.2c0,4.9,4,8.8,8.8,8.8    h20.3c4.9,0,8.8-4,8.8-8.8v-8.4c0.6,0.1,1.3,0.2,2,0.2v13.9c0,6.8-2.2,13.1-6,18.2c0,0-0.1,0.1-0.1,0.1    c-3.7,4.9-8.8,8.7-14.9,10.7c-6.1-2-11.2-5.8-14.9-10.7c0-0.1-0.1-0.1-0.1-0.1c-3.8-5.1-6-11.5-6-18.2V31z M75,94v-7    c0-0.6-0.4-1-1-1s-1,0.4-1,1v7H50H27v-7c0-0.6-0.4-1-1-1s-1,0.4-1,1v7H11.1l1.4-17.6c0.3-3.9,3.1-7.2,6.9-8.1l14.5-3.4    c3.9,5.1,9.4,9,15.8,11c0.1,0,0.2,0,0.3,0s0.2,0,0.3,0c6.5-2.1,11.9-6,15.8-11l14.5,3.4c3.9,0.9,6.6,4.1,6.9,8.1L88.9,94H75z"/>

<path d="M39,39c0.6,0,1-0.4,1-1c0-1.1,0.9-2,2-2s2,0.9,2,2c0,0.6,0.4,1,1,1s1-0.4,1-1c0-2.2-1.8-4-4-4s-4,1.8-4,4    C38,38.6,38.4,39,39,39z"/>

<path d="M55,39c0.6,0,1-0.4,1-1c0-1.1,0.9-2,2-2s2,0.9,2,2c0,0.6,0.4,1,1,1s1-0.4,1-1c0-2.2-1.8-4-4-4s-4,1.8-4,4    C54,38.6,54.4,39,55,39z"/>

<path d="M46.8,53.4c0.9,0.4,2,0.6,3.2,0.6c3,0,5-1.2,5-3c0-0.6-0.4-1-1-1s-1,0.4-1,1c0,0.4-1.2,1-3,1s-3-0.6-3-1c0-0.6-0.4-1-1-1    s-1,0.4-1,1C45,51.6,45.2,52.7,46.8,53.4z"/>

</g>

</g>

<g id="woman"/>

<g id="moustache"/>

<g id="hair_gel"/>

<g id="shampoo"/>

<g id="mirror"/>

<g id="spray"/>

<g id="apron"/>

<g id="chair"/>

<g id="mask"/>

</svg>